<svg width="155" height="55" viewBox="0 0 155 55" fill="none" xmlns="http://www.w3.org/2000/svg">
<g clip-path="url(#clip0_764_1075)">
<mask id="mask0_764_1075" style="mask-type:luminance" maskUnits="userSpaceOnUse" x="0" y="0" width="55" height="55">
<path d="M0 0H55V55H0V0Z" fill="white"/>
</mask>
<g mask="url(#mask0_764_1075)">
<path d="M39.7719 36.0972H32.4156C31.5906 36.0972 30.9375 35.4441 30.9375 34.6191V27.2628C30.9375 26.455 31.5906 25.7847 32.4156 25.7847H39.7719C40.5797 25.7847 41.25 26.4378 41.25 27.2628V34.6191C41.25 35.4441 40.5969 36.0972 39.7719 36.0972Z" fill="white"/>
<path d="M31.4187 1.58637L31.4256 1.59497L53.3482 23.1911L53.3534 23.1962C53.8749 23.7046 54.2894 24.3123 54.5722 24.9835C54.855 25.6546 55.0004 26.3757 55 27.104C54.9995 27.8324 54.8531 28.5532 54.5694 29.224C54.2857 29.8948 53.8705 30.502 53.3482 31.0097C52.408 31.9397 51.1634 32.4988 49.8437 32.584V43.1561C51.3127 43.5076 52.6204 44.3438 53.5559 45.5297C54.4914 46.7155 55.0001 48.182 54.9999 49.6925V53.2847H-7.73228e-05V49.6925C-0.00244044 48.1812 0.505409 46.7135 1.44122 45.5269C2.37704 44.3402 3.68602 43.5043 5.15617 43.1543V32.6528C3.83709 32.5614 2.59385 32.0026 1.64992 31.0767C1.12776 30.5673 0.712734 29.9587 0.42926 29.2866C0.145786 28.6144 -0.000411607 27.8924 -0.000731894 27.163C-0.00105218 26.4335 0.144511 25.7113 0.427395 25.039C0.710278 24.3666 1.12477 23.7576 1.64649 23.2478L1.65164 23.2443L6.87492 18.1018V6.0534C6.87492 3.53887 8.95117 1.71872 11.2457 1.71872H16.2713C18.1654 1.71872 19.867 2.95622 20.4307 4.75918L23.6362 1.5984C25.8018 -0.553472 29.2737 -0.512222 31.4152 1.58465M17.1874 12.7737V6.0534C17.1847 5.81301 17.0867 5.58353 16.915 5.41532C16.7432 5.24711 16.5117 5.15392 16.2713 5.15622H11.2457C11.1252 5.15325 11.0053 5.17422 10.893 5.21792C10.7807 5.26162 10.6782 5.32717 10.5914 5.41078C10.5045 5.49439 10.4352 5.59439 10.3873 5.705C10.3394 5.8156 10.314 5.93461 10.3124 6.05512V19.5404L17.1874 12.7737ZM8.59367 27.0634V46.4097H12.0312C12.0312 45.4643 12.8046 44.6909 13.7499 44.6909V28.1737C13.7499 26.8847 14.7984 25.8362 16.0874 25.8362H25.1796C26.4687 25.8362 27.5171 26.8847 27.5171 28.1737V44.6943C28.4229 44.739 29.1499 45.4936 29.1499 46.4097H46.4062V26.9947L27.5343 8.40981L8.59367 27.0634ZM25.7812 35.2378C25.7812 35.0099 25.6906 34.7913 25.5295 34.6301C25.3683 34.4689 25.1497 34.3784 24.9218 34.3784C24.6939 34.3784 24.4753 34.4689 24.3141 34.6301C24.153 34.7913 24.0624 35.0099 24.0624 35.2378C24.0624 35.4657 24.153 35.6843 24.3141 35.8454C24.4753 36.0066 24.6939 36.0972 24.9218 36.0972C25.1497 36.0972 25.3683 36.0066 25.5295 35.8454C25.6906 35.6843 25.7812 35.4657 25.7812 35.2378Z" fill="white"/>
</g>
</g>
<path d="M72.192 21.5V8.52H67.088V6.1H80.156V8.52H75.052V21.5H72.192ZM83.4024 21.5V6.1H86.2624V21.5H83.4024ZM98.6558 21.72C97.4824 21.72 96.3898 21.5293 95.3778 21.148C94.3804 20.752 93.5078 20.202 92.7598 19.498C92.0264 18.7793 91.4544 17.936 91.0438 16.968C90.6331 16 90.4278 14.944 90.4278 13.8C90.4278 12.656 90.6331 11.6 91.0438 10.632C91.4544 9.664 92.0338 8.828 92.7818 8.124C93.5298 7.40533 94.4024 6.85533 95.3998 6.474C96.3971 6.078 97.4898 5.88 98.6778 5.88C99.9391 5.88 101.09 6.1 102.132 6.54C103.173 6.96533 104.053 7.60333 104.772 8.454L102.924 10.192C102.366 9.59067 101.743 9.14333 101.054 8.85C100.364 8.542 99.6164 8.388 98.8098 8.388C98.0031 8.388 97.2624 8.52 96.5878 8.784C95.9278 9.048 95.3484 9.422 94.8498 9.906C94.3658 10.39 93.9844 10.962 93.7058 11.622C93.4418 12.282 93.3098 13.008 93.3098 13.8C93.3098 14.592 93.4418 15.318 93.7058 15.978C93.9844 16.638 94.3658 17.21 94.8498 17.694C95.3484 18.178 95.9278 18.552 96.5878 18.816C97.2624 19.08 98.0031 19.212 98.8098 19.212C99.6164 19.212 100.364 19.0653 101.054 18.772C101.743 18.464 102.366 18.002 102.924 17.386L104.772 19.146C104.053 19.982 103.173 20.62 102.132 21.06C101.09 21.5 99.9318 21.72 98.6558 21.72ZM111.164 17.87L111.01 14.482L119.084 6.1H122.296L115.586 13.228L114.002 14.966L111.164 17.87ZM108.612 21.5V6.1H111.472V21.5H108.612ZM119.348 21.5L113.452 14.482L115.344 12.392L122.692 21.5H119.348ZM128.379 12.502H136.035V14.856H128.379V12.502ZM128.599 19.102H137.289V21.5H125.739V6.1H136.981V8.498H128.599V19.102ZM144.702 21.5V8.52H139.598V6.1H152.666V8.52H147.562V21.5H144.702Z" fill="white"/>
<path d="M69.068 48.5V33.1H75.8C77.472 33.1 78.9387 33.4227 80.2 34.068C81.4613 34.7133 82.444 35.608 83.148 36.752C83.852 37.896 84.204 39.2453 84.204 40.8C84.204 42.34 83.852 43.6893 83.148 44.848C82.444 45.992 81.4613 46.8867 80.2 47.532C78.9387 48.1773 77.472 48.5 75.8 48.5H69.068ZM71.928 46.08H75.668C76.8267 46.08 77.824 45.86 78.66 45.42C79.5107 44.98 80.1633 44.364 80.618 43.572C81.0873 42.78 81.322 41.856 81.322 40.8C81.322 39.7293 81.0873 38.8053 80.618 38.028C80.1633 37.236 79.5107 36.62 78.66 36.18C77.824 35.74 76.8267 35.52 75.668 35.52H71.928V46.08ZM95.5598 48.72C94.3571 48.72 93.2498 48.522 92.2378 48.126C91.2258 47.73 90.3458 47.18 89.5978 46.476C88.8498 45.7573 88.2704 44.9213 87.8598 43.968C87.4491 43 87.2438 41.944 87.2438 40.8C87.2438 39.656 87.4491 38.6073 87.8598 37.654C88.2704 36.686 88.8498 35.85 89.5978 35.146C90.3458 34.4273 91.2258 33.87 92.2378 33.474C93.2498 33.078 94.3498 32.88 95.5378 32.88C96.7404 32.88 97.8404 33.078 98.8378 33.474C99.8498 33.87 100.73 34.4273 101.478 35.146C102.226 35.85 102.805 36.686 103.216 37.654C103.626 38.6073 103.832 39.656 103.832 40.8C103.832 41.944 103.626 43 103.216 43.968C102.805 44.936 102.226 45.772 101.478 46.476C100.73 47.18 99.8498 47.73 98.8378 48.126C97.8404 48.522 96.7478 48.72 95.5598 48.72ZM95.5378 46.212C96.3151 46.212 97.0338 46.08 97.6938 45.816C98.3538 45.552 98.9258 45.178 99.4098 44.694C99.8938 44.1953 100.268 43.6233 100.532 42.978C100.81 42.318 100.95 41.592 100.95 40.8C100.95 40.008 100.81 39.2893 100.532 38.644C100.268 37.984 99.8938 37.412 99.4098 36.928C98.9258 36.4293 98.3538 36.048 97.6938 35.784C97.0338 35.52 96.3151 35.388 95.5378 35.388C94.7604 35.388 94.0418 35.52 93.3818 35.784C92.7364 36.048 92.1644 36.4293 91.6658 36.928C91.1818 37.412 90.8004 37.984 90.5218 38.644C90.2578 39.2893 90.1258 40.008 90.1258 40.8C90.1258 41.5773 90.2578 42.296 90.5218 42.956C90.8004 43.616 91.1818 44.1953 91.6658 44.694C92.1498 45.178 92.7218 45.552 93.3818 45.816C94.0418 46.08 94.7604 46.212 95.5378 46.212ZM107.963 48.5V33.1H114.299C115.663 33.1 116.829 33.32 117.797 33.76C118.78 34.2 119.535 34.8307 120.063 35.652C120.591 36.4733 120.855 37.4487 120.855 38.578C120.855 39.7073 120.591 40.6827 120.063 41.504C119.535 42.3107 118.78 42.934 117.797 43.374C116.829 43.7993 115.663 44.012 114.299 44.012H109.547L110.823 42.714V48.5H107.963ZM118.039 48.5L114.145 42.912H117.203L121.119 48.5H118.039ZM110.823 43.022L109.547 41.658H114.167C115.429 41.658 116.375 41.3867 117.005 40.844C117.651 40.3013 117.973 39.546 117.973 38.578C117.973 37.5953 117.651 36.84 117.005 36.312C116.375 35.784 115.429 35.52 114.167 35.52H109.547L110.823 34.112V43.022ZM125.155 48.5V33.1H127.509L134.241 44.342H133.009L139.631 33.1H141.985L142.007 48.5H139.301L139.279 37.346H139.851L134.219 46.74H132.943L127.223 37.346H127.883V48.5H125.155Z" fill="white"/>
<defs>
<clipPath id="clip0_764_1075">
<rect width="55" height="55" fill="white"/>
</clipPath>
</defs>
</svg>
